PathFileType  4	(X/Y/Z) C:\Users\antoi\Documents\MyRepositories\mobilecap\ResultsAnalysis
DataRate	CameraRate	NumFrames	NumMarkers	Units	OrigDataRate	OrigDataStartFrame	OrigNumFrames
100.0	100.0	7	51	mm	100.0	98	130
Frame#	Time	r_knee			r_shank_antsup			r_ankle			r_calc			r_5meta			r_toe			L_knee			L_shank_antsup			L_ankle			L_calc			L_5meta			L_toe			r_sh2			r_sh3			r_sh4			L_sh2			L_sh3			r_thigh1			r_thigh2			r_thigh3			r_thigh4			r_thigh5			L_thigh1			L_thigh2			L_thigh3			L_thigh4			r.ASIS			r.PSIS			L.ASIS			L.PSIS			C7			R_Shoulder			L_Shoulder			R_Sternum			L_Sternum			R_humerus			R_elbow_med			R_elbow_lat			R_forearm			R_wrist_radius			R_wrist_ulna			L_humerus			L_elbow_med			L_elbow_lat			L_forearm			L_wrist_radius			L_wrist_ulna			R_HJC			L_HJC			R_HJC_reg			L_HJC_reg			
		X1	Y1	Z1	X2	Y2	Z2	X3	Y3	Z3	X4	Y4	Z4	X5	Y5	Z5	X6	Y6	Z6	X7	Y7	Z7	X8	Y8	Z8	X9	Y9	Z9	X10	Y10	Z10	X11	Y11	Z11	X12	Y12	Z12	X13	Y13	Z13	X14	Y14	Z14	X15	Y15	Z15	X16	Y16	Z16	X17	Y17	Z17	X18	Y18	Z18	X19	Y19	Z19	X20	Y20	Z20	X21	Y21	Z21	X22	Y22	Z22	X23	Y23	Z23	X24	Y24	Z24	X25	Y25	Z25	X26	Y26	Z26	X27	Y27	Z27	X28	Y28	Z28	X29	Y29	Z29	X30	Y30	Z30	X31	Y31	Z31	X32	Y32	Z32	X33	Y33	Z33	X34	Y34	Z34	X35	Y35	Z35	X36	Y36	Z36	X37	Y37	Z37	X38	Y38	Z38	X39	Y39	Z39	X40	Y40	Z40	X41	Y41	Z41	X42	Y42	Z42	X43	Y43	Z43	X44	Y44	Z44	X45	Y45	Z45	X46	Y46	Z46	X47	Y47	Z47	X48	Y48	Z48	X49	Y49	Z49	X50	Y50	Z50	X51	Y51	Z51	

98	0.97000000	1212.89390	578.59914	-63.58685	1265.29941	492.29982	-69.76290	1242.82057	150.59686	-92.34627	1175.65042	88.02493	-146.16149	1367.32969	87.99818	-44.56374	1423.74830	129.10246	-102.24243	934.10945	541.06129	-349.40324	923.92776	446.69229	-362.39676	867.68430	121.25012	-273.79897	788.98463	74.48105	-217.48416	977.37882	48.70605	-308.92974	1039.65377	74.22493	-246.71992	1262.90459	382.51324	-44.70814	1198.33406	500.36469	-33.48518	1180.57439	386.00131	-27.72280	835.94808	461.12488	-349.05492	832.90102	341.53959	-333.05545	1143.38158	890.29396	-44.92958	1197.23093	796.17441	-57.51664	1166.34199	747.72423	-22.08896	1050.29497	832.79220	-30.55185	1111.64377	734.79843	-36.02669	1042.28958	823.59635	-390.76024	1036.23037	685.20584	-366.07994	932.00668	826.02761	-395.93592	921.79608	690.21481	-378.92765	1086.25862	1083.12326	-89.95266	901.83612	1072.08763	-139.77797	1067.44002	1080.05223	-341.87565	890.81411	1080.64739	-249.38578	987.49240	1633.25036	-212.13618	1045.46840	1555.69233	-44.00421	1009.60497	1557.12716	-382.07542	1090.17363	1521.46289	-186.98380	1083.23484	1519.82962	-243.44428	1021.86981	1394.27134	19.06997	915.60181	1211.74104	-42.11798	920.07429	1224.63402	41.64365	937.37156	1054.38100	73.09883	960.18042	958.26047	69.92275	917.54330	973.20194	86.29411	999.34223	1433.25617	-465.12617	992.97303	1187.18336	-414.30103	1005.27283	1206.90657	-495.28600	1068.79679	1166.47547	-516.89435	1191.56365	1035.29788	-524.25369	1159.29864	1012.05805	-534.77684	1021.03200	957.54016	-104.03363	996.19438	963.69180	-309.40747	1039.96095	983.64292	-128.45009	1023.32720	996.56150	-293.85870	
99	0.98000000	1224.82665	574.22858	-64.01546	1280.12558	490.97621	-70.63328	1277.08607	148.32938	-94.89353	1212.42734	83.37796	-148.51822	1405.10861	91.02943	-48.98428	1458.98543	135.71903	-106.88645	941.38319	540.54315	-349.61246	929.66539	446.23745	-362.64303	868.31025	121.69704	-273.53593	789.21395	74.67113	-217.25050	977.42892	48.65882	-308.98653	1039.87403	73.86680	-246.78570	1283.53856	381.11714	-46.09336	1212.88812	495.46308	-34.14939	1200.99681	380.16186	-29.11893	841.90126	462.10078	-349.08818	837.01482	342.55350	-333.02399	1155.61129	886.57420	-45.46442	1208.44064	791.79921	-58.06903	1177.72826	743.98608	-21.50823	1061.92874	829.89037	-30.36861	1122.75293	731.52321	-35.42117	1052.94057	821.90426	-391.23336	1045.46217	683.61791	-366.60689	942.73941	825.72874	-396.43578	930.75300	689.79613	-379.42206	1100.62878	1081.02152	-89.96360	915.90847	1070.09815	-139.28549	1080.81494	1078.37682	-342.02791	904.60937	1079.09584	-248.81240	1000.70387	1631.45295	-211.69285	1059.02550	1553.83909	-43.58266	1022.72831	1555.83236	-381.58565	1103.56225	1519.71318	-186.71985	1096.69382	1518.25737	-243.17405	1033.24625	1392.55986	19.54157	924.98238	1211.55736	-42.87840	928.71073	1224.28607	40.85180	943.45609	1053.75459	72.43360	965.26786	957.36393	69.26333	922.72253	972.93424	85.43912	1013.82549	1432.73951	-465.31786	1011.71104	1185.96223	-416.96773	1023.88051	1206.74941	-497.80880	1088.83173	1168.77546	-519.29844	1216.85457	1043.02222	-526.68804	1185.65198	1018.44802	-537.63553	1035.18773	955.47994	-104.17199	1009.62314	962.06029	-309.44307	1054.09968	981.31782	-128.77250	1037.03056	994.91158	-294.22437	
100	0.99000000	1236.34486	569.81030	-64.44064	1294.22026	489.40508	-71.51595	1309.17549	146.70708	-97.46149	1246.74466	79.64757	-150.67394	1440.32241	94.37909	-53.74254	1491.49495	142.32956	-111.97808	948.86598	540.00237	-349.79779	935.58666	445.77169	-362.95958	868.96174	122.24179	-273.33919	789.47737	74.95662	-216.94981	977.49946	48.58942	-309.04153	1040.12018	73.46048	-246.89400	1302.88219	379.74042	-47.53995	1226.90841	490.62928	-34.87968	1220.34142	374.73659	-30.62739	848.05147	463.17708	-349.10644	841.28408	343.65647	-332.94798	1168.02976	882.91290	-45.87296	1219.89448	787.47860	-58.39951	1189.16986	740.23971	-20.93317	1073.73605	827.03868	-30.16536	1133.98203	728.31326	-34.93584	1063.83591	820.18327	-391.68045	1054.91591	681.96536	-367.19589	953.67097	825.34513	-397.00598	940.13236	689.40088	-380.05597	1115.09793	1078.78886	-89.84481	930.09103	1067.99250	-138.75984	1094.40048	1076.59218	-342.07396	918.56026	1077.39202	-248.19646	1013.94863	1629.58394	-211.21309	1072.57091	1551.91380	-43.11570	1035.91535	1554.40642	-381.03497	1116.98865	1517.87507	-186.38802	1110.20199	1516.58820	-242.83347	1044.72524	1390.81131	20.04498	934.57633	1211.28045	-43.49880	937.64546	1223.85631	40.19715	950.03364	1053.10177	71.84776	970.86285	956.48920	68.71221	928.42861	972.58016	84.66033	1028.31919	1432.08352	-465.42555	1030.14720	1184.72199	-419.47165	1042.12838	1206.54826	-500.17085	1108.40404	1171.01815	-521.50761	1241.40865	1050.81626	-528.79878	1211.26639	1024.96608	-540.23791	1049.44888	953.29312	-104.22082	1023.24911	960.30524	-309.39730	1068.33980	978.90231	-128.95481	1050.89987	993.12038	-294.46958	
101	1.00000000	1247.55248	565.50331	-64.92995	1307.71086	487.64033	-72.46053	1338.72116	145.54992	-100.07335	1278.23742	76.55740	-152.66294	1472.62025	97.87750	-58.75941	1520.98440	148.67388	-117.38828	956.58452	539.46291	-349.93637	941.77330	445.32330	-363.32199	869.68183	122.91990	-273.21626	789.80117	75.41829	-216.60954	977.60832	48.50445	-309.09231	1040.38270	72.97845	-247.03740	1320.99827	378.34705	-49.05467	1240.47267	485.97316	-35.70138	1238.62726	369.78117	-32.23402	854.48712	464.37913	-349.13582	845.78012	344.87337	-332.84462	1180.75219	879.43704	-46.08986	1231.68160	783.34906	-58.48788	1200.66818	736.53370	-20.51170	1085.82694	824.38565	-30.10107	1145.35275	725.25617	-34.73298	1074.96578	818.46034	-392.08258	1064.61568	680.28581	-367.78565	964.78156	824.87548	-397.58289	949.94064	689.02332	-380.71042	1129.64222	1076.49583	-89.64550	944.38055	1065.81668	-138.20839	1108.18030	1074.74355	-342.04427	932.64601	1075.55663	-247.54512	1027.23250	1627.69505	-210.69519	1086.07512	1549.96214	-42.59134	1049.19099	1552.86744	-380.43115	1130.45403	1516.00729	-185.97127	1123.74981	1514.86181	-242.41349	1056.35778	1389.03440	20.56383	944.48170	1210.88039	-43.97994	946.98091	1223.32452	39.68678	957.14383	1052.40683	71.36773	976.96984	955.60347	68.29153	934.66812	972.11867	83.99378	1042.83245	1431.29334	-465.45554	1048.26932	1183.44545	-421.82039	1060.02198	1206.30247	-502.37564	1127.53276	1173.18179	-523.51530	1265.21908	1058.57544	-530.58066	1236.12855	1031.55721	-542.56882	1063.82682	951.04155	-104.19320	1037.06483	958.46202	-309.28258	1082.68324	976.47677	-129.01491	1064.91152	991.22924	-294.60054	
102	1.01000000	1258.61073	561.43224	-65.53894	1320.76595	485.73030	-73.54519	1365.39212	144.63878	-102.77004	1306.56857	73.85819	-154.55853	1501.67121	101.25860	-63.94901	1547.22908	154.42328	-122.99857	964.59887	538.94906	-350.02968	948.30994	444.92130	-363.70690	870.53526	123.76559	-273.17660	790.22070	76.15674	-216.28035	977.77246	48.40724	-309.13640	1040.66778	72.40859	-247.20923	1338.00352	376.89257	-50.67488	1253.72151	481.60279	-36.62578	1255.93849	365.33772	-33.88419	861.31469	465.72781	-349.18539	850.58117	346.23415	-332.73386	1193.83061	876.22096	-46.07849	1243.83371	779.49650	-58.32697	1212.21744	732.91028	-20.31971	1098.24863	822.01997	-30.27642	1156.87013	722.40804	-34.88162	1086.31556	816.76172	-392.43890	1074.60193	678.62477	-368.32683	976.07201	824.33171	-398.08759	960.15785	688.64876	-381.25587	1144.24936	1074.23083	-89.41283	958.77469	1063.62542	-137.64404	1122.13551	1072.88056	-341.97454	946.84882	1073.61945	-246.87107	1040.56170	1625.83709	-210.13647	1099.51457	1548.03289	-42.00041	1062.57255	1551.24608	-379.78389	1143.96055	1514.16969	-185.45771	1137.33214	1513.12492	-241.90877	1068.18544	1387.24346	21.08806	954.77100	1210.33806	-44.32745	956.78311	1222.68256	39.32082	964.82088	1051.66248	71.01456	983.62986	954.68770	68.02530	941.47766	971.54690	83.46483	1057.36785	1430.38620	-465.41087	1066.06798	1182.12963	-424.01612	1077.57381	1206.02012	-504.42253	1146.23258	1175.25309	-525.31438	1288.26656	1066.21533	-532.03428	1260.22760	1038.16899	-544.60840	1078.33945	948.80183	-104.10105	1051.06693	956.57170	-309.11016	1097.13908	974.12751	-128.97115	1079.05155	989.28608	-294.62983	
103	1.02000000	1269.70290	557.68279	-66.30446	1333.55743	483.70961	-74.85597	1388.91815	143.73387	-105.59542	1331.43416	71.37133	-156.45613	1527.19423	104.14962	-69.21754	1570.09665	159.17189	-128.70065	973.00283	538.48268	-350.10525	955.27485	444.59015	-364.09927	871.59355	124.81284	-273.23508	790.77368	77.27984	-216.02255	978.00401	48.29462	-309.16978	1041.00681	71.76158	-247.40559	1354.01334	375.32582	-52.45747	1266.81309	477.61726	-37.65975	1272.35880	361.42488	-35.51414	868.64447	467.23803	-349.24243	855.75985	347.77086	-332.63547	1207.26260	873.29503	-45.84159	1256.34757	775.96344	-57.93291	1223.84659	729.42604	-20.35159	1111.00089	819.96324	-30.71033	1168.54995	719.80305	-35.35462	1097.87851	815.11445	-392.76303	1084.91988	677.02862	-368.79512	987.56998	823.74518	-398.43143	970.76234	688.27056	-381.59311	1158.92174	1072.08798	-89.17616	973.27268	1061.47781	-137.07911	1136.25244	1071.05064	-341.89269	961.15840	1071.61942	-246.18818	1053.93949	1624.05515	-209.53666	1112.87859	1546.17409	-41.34033	1076.06922	1549.58642	-379.10298	1157.51355	1512.41977	-184.84158	1150.95295	1511.42951	-241.31730	1080.23355	1385.46333	21.61688	965.49006	1209.65119	-44.54947	967.08143	1221.93629	39.09269	973.10149	1050.86976	70.79715	990.91231	953.73709	67.92833	948.91622	970.87831	83.08360	1071.91988	1429.39298	-465.29035	1083.53211	1180.78810	-426.05281	1094.79611	1205.71450	-506.30464	1164.50601	1177.22677	-526.89891	1310.52060	1073.67589	-533.16587	1283.54366	1044.74743	-546.33862	1093.00637	946.65602	-103.94680	1065.25903	954.67723	-308.88250	1111.72248	971.93474	-128.83221	1093.32073	987.34017	-294.56774	
104	1.03000000	1280.99883	554.30215	-67.24520	1346.21513	481.59036	-76.45907	1409.12165	142.60983	-108.57863	1352.58698	69.03018	-158.44064	1548.99932	106.11091	-74.46684	1589.56982	162.45974	-134.39768	981.90981	538.08022	-350.20447	962.74009	444.34451	-364.49625	872.91372	126.09983	-273.41393	791.49273	78.88679	-215.89041	978.30898	48.15843	-309.18881	1041.44582	71.06473	-247.62608	1369.09428	373.58829	-54.45742	1279.86894	474.08870	-38.81540	1287.91106	358.02643	-37.08716	876.57753	468.91572	-349.28691	861.37764	349.51073	-332.57016	1221.01587	870.66219	-45.41451	1269.21108	772.76467	-57.35046	1235.63890	726.15797	-20.54194	1124.06783	818.18732	-31.34283	1180.43482	717.46253	-36.05461	1109.66850	813.54740	-393.07025	1095.61253	675.53722	-369.19315	999.32439	823.16294	-398.53036	981.75128	687.89601	-381.68060	1173.67012	1070.15012	-88.93784	987.87740	1059.43194	-136.51888	1150.53132	1069.29448	-341.80700	975.57613	1069.60560	-245.50601	1067.36611	1622.38817	-208.89883	1126.17331	1544.43034	-40.61552	1089.68174	1547.94467	-378.39644	1171.12255	1510.81032	-184.12294	1164.62511	1509.82987	-240.64050	1092.50817	1383.73166	22.15856	976.66246	1208.83731	-44.65480	977.87661	1221.10564	38.98988	982.02846	1050.03817	70.71127	998.90114	952.76000	67.99583	957.05223	970.14161	82.84627	1086.47184	1428.35742	-465.08939	1100.64733	1179.45064	-427.91502	1111.69384	1205.40263	-508.00686	1182.34150	1179.10572	-528.26441	1331.94523	1080.91506	-533.98708	1306.04066	1051.23488	-547.75061	1107.84075	944.67870	-103.71917	1079.65168	952.82133	-308.58979	1126.45027	969.96046	-128.59356	1107.73369	985.43913	-294.41555	
